<svg baseProfile="full" xmlns="http://www.w3.org/2000/svg" height="78"><defs><linearGradient id="a" x1="0" x2="0" y1="0" y2="1"><stop offset="0%" stop-color="#fffff4"/><stop offset="100%" stop-color="#fff"/></linearGradient></defs><path d="M0 14h5l15 2h15l16-6 15 3 15 4 15 1h16l15-1 15 1h15l15 3 16-1 15-2 15-1 15-1 15-11 16 5 15 3h30l16 1 15-6 15-3h5" fill="url(#a)" class="gradient"/><path d="M0 14h5m0 0 15 2m0 0h15m0 0 16-6m0 0 15 3m0 0 15 4m0 0 15 1m0 0h16m0 0 15-1m0 0 15 1m0 0h15m0 0 15 3m0 0 16-1m0 0 15-2m0 0 15-1m0 0 15-1m0 0 15-11m0 0 16 5m0 0 15 3m0 0h15m0 0h15m0 0 16 1m0 0 15-6m0 0 15-3m0 0h5" class="price-graph" fill="none" stroke-width="2" stroke="#FFC93D"/><g class="months" font-size="12" fill="#8c8c8c" text-anchor="middle"><text x="20" y="70">авг</text><text x="81.5" y="70">сент</text><text x="149.5" y="70">окт</text><text x="210.5" y="70">нояб</text><text x="278.5" y="70">дек</text><text x="340" y="70">янв</text></g></svg>