<!-- icon666.com - MILLIONS vector ICONS FREE --><svg id="Capa_1" enable-background="new 0 0 512 512" viewBox="0 0 512 512" xmlns="http://www.w3.org/2000/svg"><path d="m248.885 208.266v12.651c0 4.142 3.358 7.5 7.5 7.5s7.5-3.358 7.5-7.5v-12.651c0-4.142-3.358-7.5-7.5-7.5s-7.5 3.358-7.5 7.5z"></path><path d="m380.563 208.266v12.651c0 4.142 3.358 7.5 7.5 7.5s7.5-3.358 7.5-7.5v-12.651c0-4.142-3.358-7.5-7.5-7.5s-7.5 3.358-7.5 7.5z"></path><path d="m333.929 215.614c-2.956 3.391-7.222 5.335-11.705 5.335s-8.749-1.944-11.704-5.335c-2.721-3.124-7.459-3.448-10.582-.727s-3.448 7.459-.727 10.582c5.804 6.661 14.192 10.48 23.012 10.48s17.208-3.82 23.012-10.48c2.722-3.123 2.396-7.86-.726-10.582-3.122-2.721-7.859-2.396-10.58.727z"></path><path d="m228.369 395.546c-15.391 0-27.912 12.521-27.912 27.912s12.521 27.912 27.912 27.912 27.912-12.521 27.912-27.912-12.521-27.912-27.912-27.912zm0 40.824c-7.12 0-12.912-5.792-12.912-12.912s5.792-12.912 12.912-12.912 12.912 5.792 12.912 12.912-5.793 12.912-12.912 12.912z"></path><path d="m406.1 395.546c-15.391 0-27.912 12.521-27.912 27.912s12.522 27.912 27.912 27.912 27.912-12.521 27.912-27.912-12.521-27.912-27.912-27.912zm0 40.824c-7.12 0-12.912-5.792-12.912-12.912s5.792-12.912 12.912-12.912 12.912 5.792 12.912 12.912-5.792 12.912-12.912 12.912z"></path><path d="m477.622 70.215h-323.995l-3.349-16.028c-3.311-15.845-17.463-27.346-33.65-27.346h-82.25c-18.956 0-34.378 15.422-34.378 34.378s15.422 34.377 34.377 34.377h54.313l37.528 179.59c.848 4.054 4.822 6.658 8.876 5.807 4.054-.847 6.655-4.821 5.807-8.875l-38.774-185.556c-.726-3.476-3.791-5.966-7.342-5.966h-60.408c-10.684 0-19.377-8.692-19.377-19.377s8.693-19.378 19.377-19.378h82.25c9.124 0 17.101 6.482 18.968 15.414.022.107 55.704 266.996 56.297 268.175 1.05 2.085 3.04 3.596 5.393 4.011 1.227.216-10.369.073 260.79.114 10.685 0 19.377 8.693 19.377 19.377s-8.693 19.377-19.377 19.377h-24.282c-17.407-8.743-38.081-8.685-55.387 0h-122.344c-17.928-9.014-38.662-8.401-55.386 0h-23.927c-9.125 0-17.102-6.482-18.968-15.414l-10.611-50.778c-.847-4.054-4.82-6.656-8.876-5.807-4.054.847-6.655 4.821-5.807 8.875l10.611 50.778c3.311 15.845 17.463 27.345 33.651 27.345h4.827c-9.28 10.801-14.908 24.826-14.908 40.149 0 34.022 27.679 61.701 61.701 61.701s61.7-27.679 61.7-61.701c0-15.323-5.627-29.348-14.908-40.149h84.146c-9.28 10.801-14.908 24.826-14.908 40.149 0 34.022 27.679 61.701 61.701 61.701 34.021 0 61.7-27.679 61.7-61.701 0-15.323-5.627-29.348-14.908-40.149h5.183c18.956 0 34.377-15.421 34.377-34.377 0-16.127-11.166-29.69-26.171-33.38l10.972-106.982c.422-4.121-2.575-7.803-6.696-8.226-4.118-.421-7.803 2.575-8.226 6.696l-11.027 107.515h-246.62l-36.691-175.585h301.319l-3.905 38.071c-.422 4.121 2.575 7.803 6.696 8.226 4.116.424 7.803-2.575 8.226-6.696l4.132-40.287c15.691-3.18 27.539-17.077 27.539-33.691 0-18.956-15.422-34.377-34.378-34.377zm-249.253 399.944c-25.751 0-46.701-20.95-46.701-46.701 0-21.359 14.56-40.08 35.344-45.297 29.416-7.35 58.057 14.938 58.057 45.297 0 25.751-20.95 46.701-46.7 46.701zm177.731 0c-25.751 0-46.701-20.95-46.701-46.701 0-34.335 36.039-57.023 67.022-42.041 15.598 7.571 26.379 23.569 26.379 42.041.001 25.751-20.949 46.701-46.7 46.701zm71.522-346.19h-312.762l-8.098-38.754h320.861c10.685 0 19.377 8.693 19.377 19.377s-8.693 19.377-19.378 19.377z"></path></svg>